<?xml version="1.0" encoding="UTF-8"?>
<!-- Created with Inkscape (http://www.inkscape.org/) -->
<svg width="900" height="1045" version="1.1" viewBox="0 0 900 1045" xml:space="preserve" xmlns="http://www.w3.org/2000/svg"><g transform="matrix(1.0759 0 0 1.0553 -57.527 -41.816)"><g transform="matrix(1.0345,0,0,1.0121,-21.121,2.4839)"><g transform="translate(-23.011,39.631)"><g transform="translate(631.74,-30.696)" stroke-width="2.497"><path d="m-189.17 1004.3c-64.218-4.8398-143.81-37.303-203.06-72.498-47.24-28.064-97.477-79.928-125.07-114.35-14.646-18.269-15.768-20.915-8.8795-20.946 2.5121-0.0109 10.942-2.2432 18.734-4.9606 7.7917-2.7174 16.19-4.9496 18.665-4.9603 2.474-0.0107 9.4809-2.2186 15.571-4.9063 6.0897-2.6878 22.724-9.2002 36.963-14.472 14.24-5.2719 34.933-13.733 45.985-18.801 19.531-8.9576 20.282-9.1006 26.802-5.1029 6.5923 4.0418 6.8304 3.9745 13.773-3.8918 4.7512-5.3835 7.6821-7.0658 8.9503-5.1377 2.8725 4.3672 6.2172 3.4188 8.1436-2.3093 0.95389-2.8362 5.8638-9.4819 10.911-14.768l9.1766-9.6115-4.5636-18.807c-5.2027-21.44-8.0133-35.597-10.44-52.586-1.3009-9.1079-4.0017-14.192-11.705-22.033-5.507-5.6061-11.897-15.618-14.201-22.247-2.3033-6.6301-7.7487-19.176-12.101-27.879-5.8244-11.647-8.3502-20.979-9.5684-35.352-1.1881-14.017-3.3637-22.249-7.7095-29.171-5.8654-9.3425-5.9578-10.332-2.9602-31.688 2.421-17.248 2.396-29.474-0.11461-56.187-1.7649-18.778-3.573-52.805-4.018-75.615-0.44512-22.81-1.5651-51.05-2.4888-62.756-1.5226-19.293-0.92892-23.685 6.3509-46.975 4.4168-14.13 8.0304-27.94 8.0304-30.687 0-6.2287 8.0944-21.441 16.374-30.774 3.4462-3.8843 9.9683-14.244 14.493-23.021 6.2492-12.122 10.908-17.568 19.373-22.652 6.13-3.681 12.006-6.6965 13.057-6.701 1.0514-5e-3 11.415-8.4074 23.03-18.673 11.615-10.265 23.706-19.812 26.869-21.214 3.1627-1.402 6.9545-5.9608 8.4261-10.13 3.162-8.9597 17.755-17.723 33.605-20.18 8.5245-1.3215 14.556-0.24389 29.04 5.1875l18.28 6.8554 10.152-5.5503c8.3451-4.5621 11.634-5.1416 18.471-3.2553 4.575 1.2622 17.056 4.6436 27.736 7.5142 10.68 2.8707 24.818 6.7573 31.416 8.6372 6.599 1.8799 15.247 3.4037 19.217 3.3866 4.9122-0.02126 11.833 3.7176 21.659 11.7 7.9424 6.4526 19.417 14.798 25.498 18.545 6.7481 4.1582 15.719 13.546 23.02 24.093 6.58 9.5034 14.711 21.169 18.07 25.923 3.3594 4.7536 6.1065 10.29 6.1065 12.301s3.3655 7.9767 7.4788 13.255c4.6783 6.0036 7.9392 13.706 8.7083 20.57 0.67621 6.0355 3.8386 18.648 7.0275 28.027 9.0174 26.523 10.374 78.136 2.8238 107.42-3.1067 12.048-7.3237 26.051-9.3709 31.12-2.2365 13.269 0.45165 13.475 13.261 13.419 10.451-0.0452 8.1452 0.13956 12.072 7.2758 3.8859 7.0623 6.3352 28.874 3.4363 48.195-1.7859 11.903-7.4965 25.089-6.556 29.305 1.0064 4.5112-4.1388 16.981-5.153 28.367-2.6579 29.839 2.507 49.017-15.835 47.385-10.216-0.90865-17.23-15.005-18.196-4.1447-2.3287 26.176-10.68 31.085-18.092 44.214-6.8582 12.147-7.4947 15.387-7.4947 38.152 0 30.284 3.5204 40.751 19.678 58.503 11.925 13.102 17.981 15.754 23.667 10.37 2.2156-2.0974 6.075-0.43329 15.405 6.6428 15.415 11.691 22.573 15.496 29.09 15.468 2.7833-0.012 5.6875 0.93148 6.4538 2.0967 0.76642 1.1653 4.6217 2.7252 8.5673 3.4665 6.0729 1.141 48.754 19.838 80.963 35.467 4.984 2.4184 13.722 5.654 19.419 7.1903 5.6959 1.5363 12.686 3.7303 15.535 4.8756 2.848 1.1453 12.168 4.3985 20.712 7.2291 8.5439 2.8306 18.182 6.751 21.418 8.7118l5.8829 3.5652-8.3634 11.533c-61.652 85.019-148.45 155.18-246.33 195.06-15.475 9.5657-48.079 15.454-60.183 17.829-25.141 4.9336-98.84 10.029-131.17 7.5922z" fill="#808080" stroke-width="2.5133"/></g></g></g></g></svg>
