<svg viewBox="0 0 60 60" fill="none" xmlns="http://www.w3.org/2000/svg">
<path d="M22.5615 45.682C21.5093 41.0264 20.9529 35.6035 20.9529 30.0003C20.9529 28.3645 21.001 26.7228 21.0952 25.1221C21.1268 24.59 20.7203 24.133 20.1882 24.102C19.6632 24.0679 19.1991 24.4768 19.1681 25.0089C19.0716 26.648 19.0223 28.3275 19.0223 30.0009C19.0223 35.7452 19.5948 41.3147 20.6784 46.1082C20.7798 46.5561 21.1779 46.8605 21.619 46.8605C21.69 46.8605 21.7616 46.8526 21.8329 46.8365C22.3529 46.7185 22.6791 46.202 22.5615 45.682Z" fill="white" fill-opacity="0.9"/>
<path d="M29.9988 0C25.1963 0 21.2365 7.53799 19.6655 19.672C19.5975 20.2005 19.9703 20.6848 20.4991 20.7531C21.0274 20.8227 21.5122 20.4484 21.5803 19.9195C22.9516 9.32752 26.4136 1.93033 29.9994 1.93033C32.1975 1.93033 34.4452 4.79282 36.1661 9.78363C38.0228 15.169 39.0456 22.3485 39.0456 29.9997C39.0456 37.6509 38.0228 44.8305 36.1661 50.2158C34.4449 55.2066 32.1975 58.0691 29.9994 58.0691C27.6235 58.0691 25.1646 54.661 23.4226 48.9528C23.2675 48.4433 22.7283 48.1558 22.2177 48.3116C21.7082 48.4673 21.4207 49.0064 21.5765 49.5165C23.64 56.2766 26.6315 60 30 60C36.8713 60 40.976 44.7463 40.976 29.9997C40.976 15.2531 36.8701 0 29.9988 0Z" fill="white" fill-opacity="0.9"/>
<path d="M54.5105 12.7012C52.3285 9.60967 46.5164 9.639 38.5655 12.7807C38.0695 12.977 37.8266 13.5378 38.0222 14.0332C38.2185 14.5292 38.7802 14.7715 39.2747 14.5764C46.1213 11.8703 51.3541 11.5784 52.9331 13.8144C55.0722 16.8455 50.5669 24.4316 42.2202 31.8523C41.8216 32.2063 41.7858 32.8164 42.1401 33.215C42.3302 33.4297 42.5957 33.5389 42.8614 33.5389C43.0896 33.5389 43.319 33.4582 43.5032 33.2945C53.0369 24.8185 57.3575 16.735 54.5105 12.7012Z" fill="white" fill-opacity="0.9"/>
<path d="M40.238 34.8081C39.9065 34.3901 39.2999 34.32 38.882 34.6509C37.704 35.5839 36.4706 36.5055 35.2167 37.391C33.396 38.6766 31.5308 39.8845 29.6729 40.9818C29.2145 41.2526 29.0617 41.8448 29.333 42.3038C29.5131 42.6086 29.8346 42.7784 30.1648 42.7784C30.3314 42.7784 30.5007 42.735 30.655 42.6438C32.5571 41.5201 34.4666 40.2829 36.3298 38.9679C37.6128 38.0624 38.8749 37.1191 40.0808 36.1641C40.4984 35.8332 40.5691 35.226 40.238 34.8081Z" fill="white" fill-opacity="0.9"/>
<path d="M35.5405 15.1411C35.3053 14.6624 34.7274 14.4661 34.2484 14.7005C30.7342 16.4282 27.1751 18.5585 23.6702 21.0321C11.6224 29.5351 1.5279 41.6858 5.49004 47.2993C6.5762 48.8386 8.56519 49.5966 11.242 49.5966C15.1135 49.5966 20.424 48.0112 26.5233 44.9143C26.9985 44.6729 27.188 44.0925 26.9469 43.6167C26.7055 43.1415 26.125 42.952 25.6492 43.1931C16.679 47.7472 9.03831 48.978 7.06721 46.1856C5.79979 44.3893 6.84253 40.9029 9.92765 36.6187C13.2565 31.9963 18.5324 27.0208 24.7833 22.609C28.2055 20.1935 31.6766 18.1156 35.1002 16.4326C35.5786 16.1979 35.7757 15.6195 35.5405 15.1411Z" fill="white" fill-opacity="0.9"/>
<path d="M18.5984 11.7626C12.0542 9.66366 7.39806 9.99717 5.48974 12.7013C2.97072 16.2709 5.9608 22.909 13.4888 30.4585C13.6771 30.6476 13.9244 30.7424 14.1722 30.7424C14.4189 30.7424 14.6659 30.6482 14.8539 30.4605C15.2314 30.0842 15.2323 29.4729 14.856 29.0954C8.35047 22.5714 5.22076 16.4305 7.0672 13.8144C8.40825 11.9131 12.4992 11.8336 18.0089 13.6006C18.516 13.7643 19.0601 13.4844 19.2229 12.9764C19.3854 12.469 19.1059 11.9251 18.5984 11.7626Z" fill="white" fill-opacity="0.9"/>
<path d="M48.5239 31.6602C48.1675 31.2648 47.5563 31.2337 47.1609 31.5907C46.7655 31.9476 46.7338 32.5577 47.0914 32.9537C52.2661 38.6875 54.5598 43.8819 52.9334 46.1859C51.666 47.9822 48.0312 48.1678 42.9609 46.696C37.4899 45.1077 31.0345 41.8031 24.7836 37.3913C22.1661 35.544 19.701 33.5832 17.4574 31.564C17.0614 31.2082 16.4508 31.2396 16.0944 31.6355C15.738 32.0315 15.7694 32.6422 16.1659 32.9986C18.4661 35.0685 20.9907 37.0775 23.6705 38.9682C32.3113 45.0669 42.3824 49.5904 48.8495 49.5899C51.399 49.5899 53.3895 48.8865 54.5103 47.2987C56.7773 44.0872 54.5953 38.3869 48.5239 31.6602Z" fill="white" fill-opacity="0.9"/>
<path d="M45.9524 28.9889C43.1201 26.2165 39.8828 23.5394 36.3295 21.0318C31.6625 17.7378 26.8066 15.0041 22.2857 13.126C21.7947 12.9218 21.2286 13.155 21.0239 13.6472C20.8191 14.1397 21.0529 14.7043 21.5451 14.9094C25.937 16.7335 30.6641 19.3968 35.2164 22.6095C38.686 25.0579 41.8439 27.6687 44.6026 30.3687C44.7903 30.5523 45.034 30.6441 45.2778 30.6441C45.5286 30.6441 45.7788 30.547 45.9671 30.3543C46.3399 29.9733 46.3334 29.362 45.9524 28.9889Z" fill="white" fill-opacity="0.9"/>
<path d="M30 22.9921C26.1355 22.9921 22.9917 26.1358 22.9917 30.0003C22.9917 33.8648 26.1355 37.0086 30 37.0086C33.8645 37.0086 37.0082 33.8648 37.0082 30.0003C37.0082 26.1358 33.8645 22.9921 30 22.9921ZM30 35.0064C27.2396 35.0064 24.9939 32.7607 24.9939 30.0003C24.9939 27.2399 27.2396 24.9943 30 24.9943C32.7604 24.9943 35.0061 27.2399 35.0061 30.0003C35.0061 32.7607 32.7601 35.0064 30 35.0064Z" fill="white" fill-opacity="0.9"/>
</svg>
