<svg width="60" height="60" viewBox="0 0 60 60" fill="none" xmlns="http://www.w3.org/2000/svg">
<path d="M36.2823 33.0708C35.2789 32.2604 34.0077 31.8563 32.7205 31.9385H23.9292V40.9357H32.8646C34.112 40.9723 35.3291 40.5471 36.2823 39.7415C36.7341 39.3064 37.0888 38.7806 37.323 38.1987C37.5572 37.6167 37.6656 36.9918 37.6412 36.365C37.6631 35.7507 37.5531 35.1389 37.3188 34.5707C37.0844 34.0024 36.7309 33.491 36.2823 33.0708ZM35.047 27.2649C35.4621 26.895 35.7887 26.4365 36.0025 25.9233C36.2164 25.41 36.312 24.8553 36.2823 24.3001C36.3429 23.7396 36.2763 23.1727 36.0873 22.6415C35.8984 22.1104 35.592 21.6287 35.1911 21.2324C34.3101 20.6061 33.2442 20.2943 32.1646 20.3471H23.9292V28.2943H32.1646C33.2439 28.3154 34.2953 27.9503 35.1293 27.2649H35.047ZM46.5766 5.48212H13.6349C11.4507 5.48212 9.35596 6.34978 7.81152 7.89422C6.26707 9.43866 5.39941 11.5334 5.39941 13.7176V46.6593C5.39941 48.8435 6.26707 50.9382 7.81152 52.4826C9.35596 54.0271 11.4507 54.8947 13.6349 54.8947H46.5766C48.7608 54.8947 50.8555 54.0271 52.3999 52.4826C53.9444 50.9382 54.812 48.8435 54.812 46.6593V13.7176C54.812 11.5334 53.9444 9.43866 52.3999 7.89422C50.8555 6.34978 48.7608 5.48212 46.5766 5.48212ZM42.0677 40.1739C41.6699 41.1756 41.0169 42.0557 40.1735 42.7269C39.1935 43.507 38.0661 44.0812 36.8588 44.4151C35.3022 44.8738 33.684 45.089 32.0616 45.0534H18.8232V16.2294H32.8234C35.0215 16.1198 37.1938 16.7426 39 18C39.7989 18.6371 40.4303 19.4596 40.8393 20.396C41.2483 21.3324 41.4226 22.3545 41.3471 23.3736C41.4233 24.6837 41.0925 25.9854 40.4 27.1001C39.6344 28.1768 38.5772 29.0125 37.3529 29.509C38.171 29.6356 38.9559 29.9227 39.6626 30.3538C40.3692 30.7849 40.9837 31.3514 41.4706 32.0208C42.4262 33.4722 42.9082 35.1842 42.8501 36.9209C42.8194 38.048 42.5529 39.1561 42.0677 40.1739Z" fill="white" fill-opacity="0.9"/>
</svg>
