<svg width="60" height="60" viewBox="0 0 60 60" fill="none" xmlns="http://www.w3.org/2000/svg">
<g clip-path="url(#clip0_11_231)">
<path d="M54.4273 0H5.57056C4.40026 0 3.52225 0.990314 3.6255 2.16049L8.08797 52.1676C8.19135 53.3369 9.20269 54.5607 10.337 54.8767L27.9287 59.7633C29.0615 60.0772 30.9131 60.0793 32.0476 59.7674L49.661 54.8877C50.7956 54.5726 51.807 53.3598 51.9102 52.1885L56.3746 2.16049C56.4779 0.990314 55.6036 0 54.4273 0ZM45.9542 18.0512C45.9534 18.0588 45.9474 18.0648 45.9399 18.0661C45.9323 18.0673 45.9249 18.0634 45.9216 18.0563L32.139 23.7043C31.9427 23.7848 31.8308 23.9929 31.8716 24.2011C31.9126 24.4092 32.0952 24.5594 32.3074 24.5594H43.028C43.5983 24.5594 44.1416 24.8016 44.523 25.2257C44.9042 25.6498 45.0875 26.2159 45.027 26.7828L43.3519 42.4965C43.2697 43.2674 42.7517 43.9223 42.0202 44.1797L30.6411 48.1835C30.2126 48.3344 29.7454 48.3356 29.3158 48.1867L17.9898 44.2634C17.254 44.0085 16.7316 43.3517 16.6489 42.5773L15.8895 35.4609C15.8496 35.0873 15.9703 34.7143 16.2214 34.435C16.4727 34.1556 16.8306 33.996 17.2064 33.996H20.3581C21.0354 33.996 21.6034 34.5068 21.675 35.1801L22.1409 39.5543L29.983 42.2803L37.861 39.5295L38.8246 30.4574H16.5501C15.8749 30.4574 15.3077 29.9495 15.2337 29.2783L14.8096 25.4333C14.7448 24.8468 15.0757 24.2884 15.6211 24.0637L29.8769 18.1861C30.0387 18.1195 30.1306 17.948 30.0967 17.7765C30.0626 17.605 29.9124 17.4815 29.7376 17.4815H14.7281C14.2763 17.4815 13.8973 17.1403 13.8501 16.691L13.416 12.5583C13.3898 12.3096 13.4705 12.0615 13.6379 11.8755C13.8053 11.6896 14.0437 11.5835 14.2938 11.5835H45.6998C45.9513 11.5835 46.1908 11.6908 46.3583 11.8783C46.5258 12.0659 46.6053 12.316 46.5769 12.5659L45.9542 18.0512Z" fill="white"/>
</g>
<defs>
<clipPath id="clip0_11_231">
<rect width="60" height="60" fill="white"/>
</clipPath>
</defs>
</svg>
