<svg width="60" height="60" viewBox="0 0 60 60" fill="none" xmlns="http://www.w3.org/2000/svg">
<path d="M47.325 28.395L31.605 12.675C31.1672 12.2435 30.5772 12.0016 29.9625 12.0016C29.3478 12.0016 28.7578 12.2435 28.32 12.675L25.065 15.945L29.205 20.085C29.693 19.9174 30.2184 19.8907 30.7209 20.0081C31.2234 20.1254 31.6826 20.3821 32.0459 20.7485C32.4092 21.1149 32.6619 21.5763 32.7749 22.0798C32.8879 22.5833 32.8568 23.1084 32.685 23.595L36.675 27.585C37.1423 27.4146 37.647 27.3737 38.1357 27.4666C38.6243 27.5595 39.0788 27.7827 39.451 28.1126C39.8233 28.4425 40.0994 28.8669 40.2503 29.3409C40.4012 29.8149 40.4211 30.3208 40.3081 30.8052C40.1951 31.2896 39.9533 31.7344 39.6082 32.0927C39.2631 32.451 38.8277 32.7093 38.3479 32.8404C37.8681 32.9715 37.3617 32.9706 36.8824 32.8376C36.4031 32.7046 35.9687 32.4446 35.625 32.085C35.242 31.6988 34.9809 31.2085 34.8742 30.6751C34.7676 30.1418 34.82 29.5888 35.025 29.085L31.305 25.5V35.28C31.5698 35.4182 31.8125 35.5951 32.025 35.805C32.4486 36.2251 32.7255 36.7705 32.8147 37.3603C32.9039 37.9502 32.8007 38.5531 32.5203 39.0796C32.2399 39.6062 31.7973 40.0284 31.258 40.2836C30.7188 40.5388 30.1117 40.6134 29.5267 40.4964C28.9417 40.3794 28.41 40.077 28.0104 39.6341C27.6108 39.1911 27.3646 38.6312 27.3083 38.0373C27.252 37.4434 27.3886 36.8471 27.6978 36.3369C28.007 35.8268 28.4724 35.4298 29.025 35.205V25.245C28.6859 25.1102 28.3773 24.9089 28.1174 24.6528C27.8574 24.3968 27.6515 24.0912 27.5116 23.7542C27.3718 23.4172 27.3009 23.0556 27.3032 22.6908C27.3055 22.3259 27.3809 21.9652 27.525 21.63L23.46 17.55L12.675 28.32C12.2435 28.7578 12.0017 29.3478 12.0017 29.9625C12.0017 30.5772 12.2435 31.1672 12.675 31.605L28.395 47.325C28.8328 47.7564 29.4228 47.9983 30.0375 47.9983C30.6522 47.9983 31.2422 47.7564 31.68 47.325L47.325 31.68C47.7565 31.2422 47.9983 30.6522 47.9983 30.0375C47.9983 29.4228 47.7565 28.8328 47.325 28.395Z" fill="white" fill-opacity="0.9"/>
</svg>
