<svg width="60" height="60" viewBox="0 0 60 60" fill="none" xmlns="http://www.w3.org/2000/svg">
<g clip-path="url(#clip0_11_250)">
<path d="M37.89 48.58L39.48 45.87C39.48 45.87 35.87 47.3475 29.83 47.3475C23.785 47.3475 20.23 45.9275 20.23 45.9275L22.0075 48.885L22.6375 58.2075C22.6375 59.215 25.9225 60.0025 29.9775 60.0025C34.035 60.0025 37.3225 59.2175 37.3225 58.2075L37.895 48.62V48.58H37.89ZM39.4275 30.965C37.505 31.08 36.545 33.2225 35.58 35.4775C35.2225 36.3025 34.005 39.82 33.21 39.385C32.415 38.9525 34.2425 36.0625 34.7575 34.3425C34.165 34.7775 31.995 36.465 31.435 34.88C30.54 35.665 28.6125 36.08 28.83 34.0575C28.3525 34.92 27.2775 36.115 25.9825 35.5925C24.3 34.955 26.97 29.565 27.6325 29.825C28.2975 30.1275 27.5 31.325 27.2925 31.81C26.8275 32.8575 26.2975 34.205 26.655 34.4675C27.255 34.9525 28.915 32.71 28.9525 32.67C29.2625 32.2575 30.15 29.5975 30.86 29.9025C31.5725 30.2375 29.0825 33.755 30.01 34.4675C30.2 34.6175 30.9675 34.3925 31.4325 33.87C31.7325 33.57 31.6275 32.82 32.63 30.425C33.64 28.0275 34.54 25.035 35.2275 25.26C35.915 25.485 35.35 27.0175 35.1 27.6175C33.94 30.3125 31.93 34.7275 32.875 34.3925C33.81 34.055 34.2975 34.055 35.2325 32.97C36.1675 31.885 36.095 30.09 36.73 30.1275C37.33 30.1625 37.255 30.7625 37.105 31.1725C37.705 30.4975 39.985 29.0025 40.5125 30.4625C41.1475 32.1825 37.2525 34.6925 38.2275 34.5425C39.165 34.43 40.6975 33.4575 41.3725 32.56L43.17 16.31C43.17 16.31 41.335 17.81 29.7675 17.81C18.2 17.81 16.5575 16.35 16.5575 16.35L18.09 31.175C18.915 28.855 20.86 24.14 23.895 24.325C25.28 24.4 27.1525 27.0975 25.54 27.1725C24.865 27.21 24.79 25.825 24.005 25.6375C23.4075 25.5225 22.62 25.975 22.0975 26.5C21.0875 27.51 18.8375 31.515 19.1375 33.5025C19.5125 36.0475 22.655 32.6375 23.18 31.6275C23.5525 30.92 23.815 28.7825 24.6 29.0075C25.425 29.2325 24.5275 31.4425 23.925 33.35C23.25 35.5225 22.915 37.8025 22.095 37.54C21.27 37.28 22.6175 34.4725 22.54 33.985C21.7575 34.7325 20.3325 36.535 18.4625 35.6325L19.3975 44.88C19.3975 44.88 21.945 46.8625 29.58 46.8625C37.215 46.8625 39.875 44.88 39.875 44.88L41.0725 34.1725C40.1 35.1475 37.03 36.83 36.8425 34.9225C36.695 33.3875 40.175 31.1775 39.2775 31.1375L39.4275 30.965ZM43.365 1.67247L36.7175 8.67247L35.5025 13.425C40.205 13.725 43.475 14.39 43.475 15.16C43.475 16.2075 37.44 17.0525 29.9975 17.0525C22.555 17.0525 16.5225 16.195 16.5225 15.145C16.5225 14.0975 22.5575 13.235 30 13.235C31.0575 13.235 32.11 13.235 33.16 13.275L34.5625 7.58497L41.625 0.0974747C41.795 -0.127525 42.325 0.0599747 42.81 0.472475C43.295 0.844975 43.5575 1.33247 43.4075 1.55747V1.63247L43.365 1.67247ZM33.78 16.16C33.78 16.16 32.4725 16.16 32.255 15.96C32.2 15.8975 32.165 15.815 32.165 15.735C32.165 15.59 32.2625 15.5075 32.39 15.46L32.5 15.6475C32.4475 15.6625 32.4275 15.685 32.4175 15.705C32.4175 15.8075 33.2025 15.8775 33.805 15.87C34.4025 15.8625 35.1325 15.8125 35.1375 15.71C35.1375 15.68 35.08 15.6525 34.985 15.6275L35.0975 15.4475C35.255 15.4975 35.39 15.5925 35.39 15.75C35.39 16.025 35.0375 16.07 34.815 16.1025C34.5475 16.14 33.785 16.16 33.785 16.16H33.78Z" fill="white" fill-opacity="0.9"/>
</g>
<defs>
<clipPath id="clip0_11_250">
<rect width="60" height="60" fill="white"/>
</clipPath>
</defs>
</svg>
