<svg width="60" height="60" viewBox="0 0 60 60" fill="none" xmlns="http://www.w3.org/2000/svg">
<path d="M1.05469 58.8281H58.4766V1.40625H1.05469V58.8281ZM39.6258 35.0079C35.1844 33.5116 33.3609 31.0807 33.3609 28.3691C33.3609 24.3482 36.6804 21.2626 41.9636 21.2626C44.4881 21.2626 46.6856 21.8704 48.0414 22.6184L46.8724 26.6392C45.9374 26.0782 44.0672 25.3302 42.057 25.3302C39.9997 25.3302 38.8777 26.3586 38.8777 27.7612C38.8777 29.2106 39.953 29.8651 42.8517 30.9405C47.0127 32.3899 48.8829 34.4938 48.9295 37.86C48.9295 42.0211 45.7035 44.7789 39.6724 44.7789C36.9141 44.7789 34.436 44.1243 32.7531 43.1892L33.9218 38.9816C35.1841 39.7762 37.6622 40.6645 39.7193 40.6645C42.244 40.6645 43.3659 39.8236 43.3659 38.3276C43.3661 36.7846 42.4309 36.0366 39.6258 35.0079ZM9.82254 13.8064C11.9264 13.4324 14.7784 13.1518 18.6121 13.1518C22.8198 13.1518 25.8588 14.0402 27.8692 15.7233C29.7393 17.2663 30.955 19.7441 30.955 22.6895C30.955 25.6818 30.0199 28.1128 28.2901 29.796C25.9525 32.0869 22.3992 33.2091 18.3316 33.2091C17.2563 33.2091 16.3213 33.1622 15.5264 32.9752V44.7799H9.82254V13.8064Z" fill="white" fill-opacity="0.9"/>
<path d="M25.2511 22.9232C25.2511 19.4168 22.8199 17.5934 18.846 17.5934C17.2563 17.5934 16.1343 17.7337 15.5264 17.8739V28.4401C16.2745 28.6739 17.1628 28.7208 18.3316 28.7208C22.6328 28.7207 25.2511 26.5699 25.2511 22.9232Z" fill="white" fill-opacity="0.9"/>
</svg>
