<svg width="64" height="60" viewBox="0 0 64 60" fill="none" xmlns="http://www.w3.org/2000/svg">
<g clip-path="url(#clip0_36_2)">
<path d="M44.2273 41.7366C46.5828 41.4961 48.3698 39.4937 48.2885 37.0904C48.2074 34.6874 46.1766 32.7648 43.7399 32.7648H43.5775C41.0593 32.845 39.11 34.9276 39.1912 37.4108C39.2725 38.6124 39.7597 39.6537 40.4908 40.3747C37.7291 45.7418 33.5054 49.6668 27.1698 52.951C22.8648 55.194 18.3974 55.9951 13.9301 55.4345C10.2748 54.9538 7.43193 53.3518 5.6447 50.7081C3.04563 46.7831 2.80203 42.5374 4.99518 38.292C6.53856 35.248 8.97507 33.0051 10.5185 31.8836C10.1936 30.8423 9.70612 29.0801 9.46252 27.7985C-2.31532 36.2094 -1.09682 47.5842 2.47714 52.951C5.1575 56.9565 10.5997 59.4396 16.6105 59.4396C18.2349 59.4396 19.8593 59.2793 21.484 58.879C31.881 56.8763 39.76 50.7883 44.2273 41.7366ZM58.5232 31.8037C52.3499 24.6743 43.2527 20.7493 32.8556 20.7493H31.5561C30.825 19.3075 29.2817 18.3461 27.576 18.3461H27.4134C24.8956 18.4262 22.9463 20.5088 23.0273 22.9923C23.1086 25.3953 25.1392 27.3178 27.576 27.3178H27.7383C29.5253 27.2377 31.0686 26.1162 31.7184 24.5942H33.1805C39.3538 24.5942 45.202 26.3564 50.4819 29.801C54.543 32.4445 57.4672 35.889 59.0917 40.0543C60.4725 43.4187 60.3912 46.7029 58.9291 49.5067C56.6549 53.7521 52.8373 56.0752 47.8013 56.0752C44.5522 56.0752 41.4657 55.1138 39.841 54.3929C38.9476 55.194 37.323 56.4755 36.1857 57.2769C39.6787 58.8788 43.2527 59.76 46.6641 59.76C54.4618 59.76 60.2289 55.5144 62.422 51.269C64.7775 46.6228 64.6149 38.6124 58.5232 31.8037ZM17.2602 43.098C17.3415 45.5013 19.3721 47.4236 21.8088 47.4236H21.9714C24.4894 47.3437 26.4387 45.2608 26.3575 42.7777C26.2764 40.3744 24.2456 38.4521 21.8088 38.4521H21.6465C21.484 38.4521 21.2401 38.4521 21.078 38.532C17.7477 33.085 16.3669 27.1575 16.8543 20.7491C17.1789 15.9428 18.8036 11.7773 21.6465 8.33275C24.002 5.36889 28.5506 3.92703 31.6374 3.84712C40.2472 3.6868 43.9022 14.2605 44.146 18.5061C45.202 18.7464 46.9889 19.3072 48.2074 19.7078C47.2325 6.73107 39.11 0.0022583 31.3125 0.0022583C24.002 0.0022583 17.2602 5.20906 14.5796 12.899C10.8433 23.1523 13.2801 33.0051 17.8287 40.7752C17.4228 41.3358 17.1789 42.2171 17.2602 43.0983V43.098Z" fill="white"/>
</g>
<defs>
<clipPath id="clip0_36_2">
<rect width="63.8298" height="60" fill="white"/>
</clipPath>
</defs>
</svg>
