<svg width="60" height="60" viewBox="0 0 60 60" fill="none" xmlns="http://www.w3.org/2000/svg">
<g clip-path="url(#clip0_11_334)">
<path d="M4.39453 11.25C4.0073 11.3769 3.72979 11.7805 3.75 12.1875V39.375H0.937499C0.840645 39.3596 0.741384 39.3596 0.64453 39.375C0.257299 39.5019 -0.0202125 39.9055 -1.05298e-06 40.3125C-1.05298e-06 42.9536 2.38018 45 5.15625 45H43.125V47.8125C43.125 48.3034 43.5716 48.75 44.0625 48.75H59.0625C59.5534 48.75 60 48.3034 60 47.8125V23.4375C60 22.9467 59.5534 22.5001 59.0625 22.5H50.625V12.1875C50.625 11.6967 50.1784 11.2501 49.6875 11.25H4.6875C4.59065 11.2347 4.49138 11.2347 4.39453 11.25ZM5.625 13.125H48.75V22.5H44.0625C43.9656 22.4846 43.8664 22.4846 43.7695 22.5C43.3823 22.6269 43.1048 23.0305 43.125 23.4375V30H36.9141L39.082 27.832C39.7046 27.306 39.1239 26.0553 38.3203 26.1914C38.1189 26.228 37.9304 26.3327 37.793 26.4844L34.2188 30.0586C33.2847 30.9927 33.8891 31.875 34.9219 31.875H47.8125C48.3078 31.882 48.7634 31.4329 48.7634 30.9375C48.7634 30.4422 48.3078 29.993 47.8125 30H45V28.125H58.125V43.125H45V41.25V39.375V35.625H49.2773L47.168 37.7344C46.7538 38.0548 46.7021 38.7457 47.0641 39.1241C47.4261 39.5025 48.1185 39.4816 48.457 39.0821L52.0899 35.5078C52.2076 35.4335 52.3085 35.3327 52.3828 35.2149C52.5511 35.0466 52.7532 33.75 51.5625 33.75H38.4375C38.3406 33.7346 38.2414 33.7346 38.1445 33.75C37.6537 33.8267 37.2768 34.3431 37.3535 34.834C37.4302 35.3249 37.9466 35.7017 38.4375 35.625H43.125V39.375H5.625V13.125ZM45 24.375H58.125V26.25H45V24.375ZM2.34375 41.25H4.45312H43.125V43.125H5.15625C3.73656 43.125 2.81437 42.2666 2.34375 41.25ZM45 45H58.125V46.875H45V45Z" fill="white" fill-opacity="0.9"/>
</g>
<defs>
<clipPath id="clip0_11_334">
<rect width="60" height="60" fill="white"/>
</clipPath>
</defs>
</svg>
