<svg width="60" height="60" viewBox="0 0 60 60" fill="none" xmlns="http://www.w3.org/2000/svg">
<path d="M49.4072 33.2333C47.521 33.2417 45.8875 33.6965 44.5234 34.3702C44.0266 33.3679 43.5128 32.4922 43.4286 31.8355C43.3278 31.0691 43.2181 30.6145 43.3361 29.7052C43.4541 28.7956 43.9844 27.5072 43.9761 27.4147C43.9677 27.3222 43.8582 26.8589 42.772 26.8505C41.6857 26.8422 40.7512 27.061 40.6416 27.3472C40.5319 27.6335 40.3217 28.282 40.1954 28.9556C40.0016 29.9408 38.0227 33.4607 36.9027 35.2963C36.5323 34.5808 36.2208 33.949 36.1533 33.4438C36.0523 32.6774 35.9429 32.2228 36.0607 31.3135C36.1786 30.4038 36.709 29.1155 36.7006 29.023C36.6922 28.9304 36.5827 28.4672 35.4966 28.4588C34.4103 28.4504 33.4758 28.6692 33.3661 28.9556C33.2567 29.2418 33.1388 29.9155 32.9199 30.5642C32.7011 31.2122 30.0653 37.0729 29.3748 38.5971C29.0211 39.3716 28.7181 39.9948 28.4991 40.416C28.4656 40.4833 28.4403 40.5254 28.4234 40.5592C28.4486 40.5171 28.4656 40.4748 28.4656 40.4919C28.2803 40.8538 28.1707 41.056 28.1707 41.056V41.0643C28.0275 41.3337 27.8676 41.5778 27.7919 41.5778C27.7413 41.5778 27.6319 40.8707 27.8172 39.9022C28.2128 37.8645 29.1475 34.6986 29.1391 34.589C29.1306 34.53 29.3158 33.9827 28.5243 33.6879C27.7581 33.4101 27.4802 33.8733 27.4129 33.8733C27.3456 33.8733 27.295 34.0418 27.295 34.0418C27.295 34.0418 28.1456 30.4715 25.6614 30.4715C24.1121 30.4715 21.9565 32.1726 20.8956 33.7135C20.2304 34.0756 18.7904 34.8586 17.2748 35.6922C16.6938 36.0122 16.0959 36.3404 15.5317 36.6522C15.4897 36.6099 15.4559 36.5678 15.4138 36.5257C12.3993 33.3093 6.83337 31.0357 7.06926 26.7158C7.1534 25.1412 7.70079 21.0069 17.7716 15.9883C26.0238 11.8791 32.6253 13.0075 33.7622 15.5167C35.3956 19.0955 30.2338 25.7561 21.6619 26.7158C18.3947 27.0779 16.6771 25.8149 16.2476 25.3435C15.8013 24.8467 15.7339 24.8213 15.5655 24.914C15.2875 25.0655 15.4645 25.5034 15.5655 25.7644C15.8181 26.4295 16.8706 27.6085 18.6643 28.1979C20.2387 28.7115 24.0701 28.9979 28.7013 27.2043C33.9051 25.2001 37.9554 19.6173 36.7681 14.9441C35.5557 10.1951 27.6825 8.6372 20.2305 11.2812C15.7929 12.8558 10.9933 15.3315 7.54083 18.5564C3.44008 22.3963 2.78337 25.7391 3.05266 27.137C4.01266 32.0965 10.85 35.3301 13.5866 37.7214C13.4519 37.7972 13.3256 37.8646 13.2078 37.932C11.8353 38.6139 6.62301 41.3421 5.31778 44.2222C3.84438 47.4893 5.56188 49.83 6.69028 50.1502C10.21 51.1268 13.814 49.367 15.7507 46.4787C17.6873 43.5906 17.4516 39.8182 16.5591 38.1004C16.5506 38.0752 16.5338 38.0585 16.5255 38.033C16.879 37.8226 17.241 37.612 17.6032 37.4016C18.302 36.989 18.9842 36.6099 19.582 36.2817C19.245 37.1912 19.0009 38.2854 18.8746 39.8687C18.7231 41.7211 19.4894 44.121 20.483 45.0641C20.9207 45.4767 21.4512 45.4853 21.7797 45.4853C22.9417 45.4853 23.4637 44.5252 24.0447 43.38C24.7605 41.982 25.392 40.3568 25.392 40.3568C25.392 40.3568 24.6005 44.7526 26.7645 44.7526C27.556 44.7526 28.3477 43.7337 28.7011 43.2116V43.2199C28.7011 43.2199 28.7181 43.1864 28.7602 43.1192C28.8443 42.9927 28.8864 42.9169 28.8864 42.9169V42.8915C29.2063 42.3442 29.9054 41.0895 30.9577 39.0182C32.322 36.3403 33.627 32.9973 33.627 32.9973C33.627 32.9973 33.7449 33.8144 34.1493 35.17C34.385 35.9699 34.8817 36.8456 35.2775 37.6962C34.9577 38.134 34.7638 38.3867 34.7638 38.3867C34.7638 38.3867 34.7638 38.395 34.772 38.4034C34.5195 38.7404 34.2333 39.1026 33.9386 39.4562C32.8607 40.736 31.5808 42.2013 31.4125 42.6223C31.2102 43.1192 31.2609 43.4894 31.6483 43.7759C31.9345 43.9949 32.4398 44.0284 32.9702 43.9865C33.9386 43.9188 34.6206 43.6833 34.949 43.5314C35.4709 43.3465 36.0774 43.0515 36.65 42.639C37.7025 41.8645 38.3426 40.753 38.2834 39.2878C38.2498 38.4795 37.9886 37.671 37.6687 36.9134C37.7614 36.7785 37.8625 36.6352 37.9551 36.4923C39.6225 34.0585 40.9108 31.3895 40.9108 31.3895C40.9108 31.3895 41.0287 32.2061 41.4327 33.5618C41.6349 34.244 42.0306 34.9934 42.3926 35.7258C40.8264 36.9974 39.8582 38.4711 39.5213 39.4392C38.8981 41.2329 39.3865 42.041 40.3043 42.2267C40.717 42.3108 41.3064 42.117 41.7443 41.9317C42.2916 41.7464 42.9484 41.4517 43.5631 40.997C44.6157 40.2225 45.6346 39.1361 45.5673 37.6626C45.5419 36.9973 45.3568 36.3321 45.1125 35.6922C46.4344 35.1366 48.1525 34.8332 50.3417 35.086C55.0319 35.6332 55.9496 38.5635 55.7727 39.7844C55.5961 41.0139 54.6109 41.6876 54.2825 41.8896C53.9539 42.0918 53.853 42.1676 53.8784 42.3191C53.9204 42.538 54.0719 42.5297 54.3497 42.479C54.7373 42.4117 56.8086 41.4853 56.901 39.2202C57.036 36.3572 54.2827 33.2081 49.4072 33.2333ZM13.2583 45.4177C11.7091 47.1102 9.53653 47.7502 8.60196 47.2112C7.59989 46.6304 7.99563 44.1379 9.90708 42.3358C11.0691 41.2412 12.5679 40.2308 13.5616 39.6077C13.7889 39.4731 14.1174 39.271 14.5216 39.0267C14.589 38.9849 14.6226 38.9679 14.6226 38.9679C14.6983 38.9172 14.7825 38.8752 14.8668 38.8246C15.5655 41.3844 14.8919 43.641 13.2583 45.4177ZM24.5754 37.7214C24.0365 39.0433 22.8997 42.4116 22.2094 42.2347C21.62 42.0831 21.2577 39.5149 22.0915 36.989C22.5125 35.7174 23.405 34.2018 23.9356 33.6124C24.7859 32.6608 25.7206 32.3576 25.9396 32.7366C26.2342 33.2333 24.9121 36.8963 24.5754 37.7214ZM33.922 42.1845C33.6947 42.3022 33.4841 42.3779 33.3831 42.319C33.3074 42.2769 33.4758 42.1169 33.4758 42.1169C33.4758 42.1169 34.6461 40.8622 35.1093 40.2894C35.3787 39.9528 35.6902 39.5569 36.0271 39.1192C36.0271 39.161 36.0353 39.2035 36.0353 39.2537C36.0272 40.7612 34.5789 41.7803 33.922 42.1845ZM41.13 40.5423C40.9616 40.4244 40.9867 40.0287 41.551 38.7992C41.77 38.3192 42.2753 37.5109 43.1508 36.7362C43.252 37.0561 43.3108 37.3592 43.3108 37.6454C43.3022 39.5401 41.9467 40.2475 41.13 40.5423Z" fill="white" fill-opacity="0.9"/>
</svg>
