<?xml version="1.0" encoding="UTF-8"?>
<!-- Created with Inkscape (http://www.inkscape.org/) -->
<svg width="52.917mm" height="52.917mm" version="1.1" viewBox="0 0 52.917 52.917" xmlns="http://www.w3.org/2000/svg">
 <g transform="translate(-69.526 -105.45)">
  <path d="m95.984 105.45a26.458 26.458 0 0 0-26.458 26.458 26.458 26.458 0 0 0 26.458 26.458 26.458 26.458 0 0 0 26.458-26.458 26.458 26.458 0 0 0-26.458-26.458zm-0.31833 13.393c2.1332 0 3.9605 0.38034 5.4818 1.141 1.5214 0.74414 2.6789 1.8356 3.4726 3.2742 0.79375 1.4221 1.1906 3.1419 1.1906 5.1594v16.545h-4.8121v-1.9813c-0.33608 0.38893-0.71631 0.72722-1.141 1.0139-0.64492 0.44649-1.3973 0.77722-2.2572 0.99219-0.8599 0.23151-1.8273 0.34727-2.9022 0.34727-3.175 0-5.548-0.65319-7.1189-1.9596-1.571-1.3229-2.3564-3.3238-2.3564-6.0027 0-2.5466 0.71934-4.4566 2.158-5.7299 1.4387-1.2733 3.6132-1.91 6.5236-1.91h7.0941v-1.0914c0-1.6867-0.45475-2.9931-1.3643-3.9191-0.89297-0.94257-2.1663-1.4139-3.8199-1.4139-1.0253 0-2.034 0.1571-3.0262 0.47129-0.97565 0.3142-1.8438 0.75241-2.6045 1.3146l-3.6959-2.5301c0.97565-1.1741 2.2572-2.0836 3.8447-2.7285 1.604-0.66146 3.3817-0.99219 5.333-0.99219zm-1.7363 14.957c-1.3229 0-2.3151 0.29765-2.9766 0.89297-0.64492 0.57877-0.96738 1.4717-0.96738 2.6789 0 1.3064 0.42995 2.2738 1.2898 2.9022 0.87643 0.62839 2.1993 0.94258 3.9687 0.94258 1.9348 0 3.3734-0.20671 4.316-0.62012 0.95912-0.41341 1.4387-1.0583 1.4387-1.9348v-4.8617z" stroke-width=".26458"/>
 </g>
</svg>
