<?xml version="1.0" encoding="UTF-8"?>
<svg width="504pt" height="486.14pt" version="1.1" viewBox="0 0 504 486.14" xmlns="http://www.w3.org/2000/svg">
 <g transform="translate(-98.006,-39.21)">
  <path d="m556.41 525.35c-39.977-75.812-119.07-122.91-206.41-122.91-87.336 0-166.42 47.098-206.4 122.91l-45.594-24.043c48.922-92.777 145.48-150.41 252-150.41s203.07 57.633 252 150.41zm-289.46-351.55c0-45.789 37.258-83.047 83.047-83.047 45.797 0 83.047 37.258 83.047 83.047s-37.25 83.047-83.047 83.047c-45.789 0-83.047-37.258-83.047-83.047zm217.64 0c0-74.215-60.379-134.59-134.59-134.59s-134.59 60.379-134.59 134.59c0 74.215 60.375 134.59 134.59 134.59s134.59-60.379 134.59-134.59z" fill-rule="evenodd"/>
 </g>
</svg>
