<svg width="25" height="25" viewBox="0 0 25 25" fill="none" xmlns="http://www.w3.org/2000/svg">
<path d="M19.4629 8.26172C19.4189 8.1543 19.3652 8.05176 19.292 7.96387L15.2002 3.48633C15.1074 3.38379 14.9951 3.31055 14.873 3.24707C14.7314 3.17383 14.5752 3.14453 14.4092 3.14453H6.60156C5.99609 3.14453 5.49316 3.66211 5.49316 4.31152V20.6787C5.49316 21.333 5.99609 21.8945 6.60156 21.8945H18.4717C19.0771 21.8945 19.5557 21.333 19.5557 20.6787V8.75977C19.5557 8.58398 19.5312 8.41309 19.4629 8.26172ZM7.83691 8.7207C7.83691 8.64746 7.9248 8.61816 8.00293 8.61816H11.46C11.5381 8.61816 11.5967 8.64746 11.5967 8.7207V9.24805C11.5967 9.31641 11.543 9.39941 11.46 9.39941H8.00293C7.9248 9.39941 7.83691 9.31641 7.83691 9.24805V8.7207ZM7.83691 14.9707C7.83691 14.8975 7.9248 14.8682 8.00293 14.8682H13.9697C14.0479 14.8682 14.0869 14.8975 14.0869 14.9707V15.498C14.0869 15.5664 14.0527 15.6494 13.9697 15.6494H8.00293C7.9248 15.6494 7.83691 15.5664 7.83691 15.498V14.9707ZM15.6494 18.623C15.6494 18.6914 15.6152 18.7744 15.5322 18.7744H8.00293C7.9248 18.7744 7.83691 18.6914 7.83691 18.623V18.0957C7.83691 18.0225 7.9248 17.9932 8.00293 17.9932H15.5322C15.6104 17.9932 15.6494 18.0225 15.6494 18.0957V18.623ZM17.2119 12.373C17.2119 12.4414 17.1777 12.5244 17.0947 12.5244H8.00293C7.9248 12.5244 7.83691 12.4414 7.83691 12.373V11.8457C7.83691 11.7725 7.9248 11.7432 8.00293 11.7432H17.0947C17.1729 11.7432 17.2119 11.7725 17.2119 11.8457V12.373ZM14.9219 8.66699C14.6484 8.66699 14.3799 8.41309 14.3799 8.11523V4.89258L17.8564 8.66699H14.9219Z" fill="white" fill-opacity="0.9"/>
</svg>
