<svg width="18" height="18" viewBox="0 0 18 18" fill="none" xmlns="http://www.w3.org/2000/svg">
<path d="M8.99999 0C7.21996 0 5.4799 0.527841 3.99986 1.51677C2.51981 2.50571 1.36626 3.91131 0.685073 5.55585C0.00388432 7.20038 -0.174346 9.00998 0.172921 10.7558C0.520188 12.5016 1.37736 14.1053 2.63603 15.364C3.8947 16.6226 5.49835 17.4798 7.24418 17.8271C8.99001 18.1743 10.7996 17.9961 12.4441 17.3149C14.0887 16.6337 15.4943 15.4802 16.4832 14.0001C17.4721 12.5201 18 10.78 18 9C17.9976 6.61377 17.0487 4.32595 15.3614 2.63864C13.674 0.95132 11.3862 0.00235291 8.99999 0V0ZM9.02594 15.7474C9.02219 15.7474 9.01853 15.7485 9.01469 15.7485C8.71366 15.6511 8.11023 14.6856 7.70826 12.8914C8.13893 12.9157 8.57076 12.9375 8.99999 12.9375C9.42968 12.9375 9.86228 12.9158 10.2936 12.8914C9.89551 14.683 9.30252 15.6477 9.02594 15.7474ZM8.99999 10.6875C8.42018 10.6875 7.88363 10.6625 7.37731 10.623C7.33761 10.1166 7.31249 9.57981 7.31249 9C7.31249 8.42019 7.33748 7.88364 7.37703 7.37732C7.88337 7.33762 8.42018 7.3125 8.99999 7.3125C9.5798 7.3125 10.1163 7.33749 10.6227 7.37704C10.6624 7.88338 10.6875 8.42019 10.6875 9C10.6875 9.57981 10.6625 10.1164 10.623 10.6227C10.1166 10.6624 9.5798 10.6875 8.99999 10.6875ZM2.2526 9.02595C2.2526 9.0222 2.25151 9.01854 2.25151 9.0147C2.34886 8.71367 3.31443 8.11024 5.10863 7.70827C5.08433 8.13894 5.06249 8.57085 5.06249 9C5.06249 9.42969 5.08418 9.86229 5.10863 10.2936C3.31703 9.89552 2.35231 9.30253 2.2526 9.02595ZM8.97404 2.25261C8.97779 2.25261 8.98145 2.25152 8.98529 2.25152C9.28632 2.34887 9.88975 3.31444 10.2917 5.10864C9.86105 5.08434 9.42914 5.0625 8.99999 5.0625C8.5703 5.0625 8.1377 5.08419 7.70635 5.10864C8.10447 3.31704 8.69746 2.35232 8.97404 2.25261ZM12.8913 7.70636C14.6829 8.10448 15.6476 8.69747 15.7474 8.97405C15.7474 8.9778 15.7485 8.98146 15.7485 8.9853C15.6511 9.28633 14.6856 9.88976 12.8913 10.2917C12.9157 9.86106 12.9375 9.42922 12.9375 9C12.9375 8.57031 12.9158 8.13771 12.8913 7.70636ZM15.0039 5.97958C14.2305 5.70853 13.4348 5.50587 12.626 5.37396C12.4941 4.56515 12.2915 3.76947 12.0204 2.9961C13.308 3.64649 14.3535 4.69201 15.0039 5.97958ZM5.97936 2.9961C5.70834 3.76947 5.50574 4.56515 5.37387 5.37396C4.56514 5.5058 3.76954 5.70838 2.99624 5.97937C3.64654 4.69192 4.69194 3.64647 5.97936 2.9961ZM2.99624 12.0206C3.76956 12.2917 4.56518 12.4943 5.37395 12.6261C5.50577 13.4349 5.70836 14.2305 5.97936 15.0037C4.69192 14.3535 3.64651 13.3081 2.99624 12.0206ZM12.0206 15.0037C12.2916 14.2304 12.4942 13.4348 12.6261 12.626C13.4349 12.4942 14.2305 12.2916 15.0039 12.0206C14.3535 13.308 13.3081 14.3534 12.0206 15.0037Z" fill="white"/>
</svg>
