<?xml version="1.0" encoding="UTF-8"?>
<svg version="1.1" viewBox="0 0 64 64" xmlns="http://www.w3.org/2000/svg">
 <path d="m47.312 28.687c0.97171-2.1304 1.5135-4.4977 1.5135-6.9907 0-9.3186-7.5657-16.884-16.884-16.884-9.3186 0-16.884 7.5657-16.884 16.884 0 2.4931 0.54178 4.8603 1.5135 6.9907h-0.0131l13.496 26.993c1.0416 2.0832 2.7334 2.0832 3.775 0l13.496-26.993zm-21.703-8.3758c0-3.4945 2.8374-6.3319 6.3319-6.3319 3.4945 0 6.3319 2.8374 6.3319 6.3319 0 3.4945-2.8374 6.3319-6.3319 6.3319-3.4945 0-6.3319-2.8374-6.3319-6.3319z" fill-rule="evenodd" stroke-width=".87384"/>
</svg>
