<svg width="32" height="32" viewBox="0 0 32 32" fill="none" xmlns="http://www.w3.org/2000/svg">
<path d="M22.27 20.735C20.5549 20.5916 18.8938 20.0651 17.4092 19.1943C15.9247 18.3235 14.6545 17.1306 13.6924 15.7035C12.7303 14.2764 12.1008 12.6516 11.8503 10.9488C11.5998 9.24599 11.7347 7.50869 12.245 5.86499C12.2751 5.76733 12.2746 5.66278 12.2435 5.56543C12.2124 5.46807 12.1522 5.38259 12.0711 5.32049C11.9899 5.25838 11.8916 5.22265 11.7895 5.21809C11.6874 5.21353 11.5864 5.24037 11.5 5.29499C9.97062 6.1759 8.66452 7.39702 7.68285 8.86377C6.70118 10.3305 6.07028 12.0035 5.83902 13.7533C5.60776 15.503 5.78233 17.2825 6.34923 18.9539C6.91613 20.6253 7.86014 22.1438 9.10814 23.3919C10.3561 24.6399 11.8747 25.5839 13.5461 26.1508C15.2175 26.7177 16.997 26.8922 18.7467 26.661C20.4965 26.4297 22.1695 25.7988 23.6362 24.8171C25.103 23.8355 26.3241 22.5294 27.205 21C27.2562 20.9137 27.2802 20.814 27.2739 20.7139C27.2677 20.6138 27.2315 20.5179 27.17 20.4386C27.1085 20.3593 27.0247 20.3004 26.9292 20.2694C26.8338 20.2385 26.7313 20.2369 26.635 20.265C25.2235 20.6998 23.7417 20.8593 22.27 20.735Z" fill="#FFC831"/>
</svg>
