<?xml version="1.0" encoding="UTF-8"?>
<svg width="134.4pt" height="235.2pt" version="1.1" viewBox="0 0 134.4 235.2" xmlns="http://www.w3.org/2000/svg">
 <g transform="translate(-282.8 -162.4)" fill-rule="evenodd">
  <path d="m294 229.64v100.72c0 30.965 25.066 56.039 56 56.039 30.93 0 56-25.086 56-56.039v-100.72c0-30.965-25.066-56.039-56-56.039-30.93 0-56 25.086-56 56.039zm-11.199 0c0-37.137 30.078-67.242 67.199-67.242 37.113 0 67.199 30.09 67.199 67.242v100.72c0 37.137-30.078 67.242-67.199 67.242-37.113 0-67.199-30.09-67.199-67.242z"/>
  <path d="m344.4 201.6v22.398c0 3.0938 2.5078 5.6016 5.6016 5.6016s5.6016-2.5078 5.6016-5.6016v-22.398c0-3.0938-2.5078-5.6016-5.6016-5.6016s-5.6016 2.5078-5.6016 5.6016z"/>
 </g>
</svg>
