<?xml version="1.0" encoding="UTF-8"?>
<svg version="1.1" viewBox="0 0 47.5 47.5" xmlns="http://www.w3.org/2000/svg">
 <defs>
  <clipPath id="a">
   <path d="M0 38h38V0H0v38Z"/>
  </clipPath>
 </defs>
 <g transform="matrix(1.1171 0 0 -1.1171 2.355 44.464)" clip-path="url(#a)">
  <path d="m35.06 10.593-3.496 3.496a4.942 4.942 0 0 1-8.341-2.528c-5.765 1.078-11.372 6.662-11.721 11.653a4.918 4.918 0 0 1 2.587 1.36 4.944 4.944 0 0 1 0 6.991l-3.495 3.495a4.943 4.943 0 0 1-6.99 0c-10.485-10.486 20.971-41.942 31.456-31.456a4.942 4.942 0 0 1 0 6.989" fill="#292f33"/>
 </g>
</svg>
