<?xml version="1.0" encoding="UTF-8"?>
<!-- Created with Inkscape (http://www.inkscape.org/) -->
<svg width="89.048mm" height="28.241mm" version="1.1" viewBox="0 0 89.048 28.241" xmlns="http://www.w3.org/2000/svg">
 <g transform="translate(-52.609 -67.744)">
  <g fill="none" stroke="#000" stroke-width=".52917" aria-label="Design">
   <path d="m59.961 70.803q2.8194 0 4.9276 1.143 2.1336 1.1176 3.2766 3.1496t1.143 4.6482q0 2.5908-1.1684 4.6228-1.143 2.032-3.2766 3.2004-2.1082 1.143-4.9022 1.143h-7.0866v-17.907zm-0.381 13.513q2.1844 0 3.429-1.1938t1.2446-3.3782q0-2.2098-1.2446-3.4036-1.2446-1.2192-3.429-1.2192h-1.7272v9.1948z"/>
   <path d="m85.157 81.42q0 0.5842-0.0762 1.1684h-9.4234q0.0762 1.1684 0.635 1.7526 0.5842 0.5588 1.4732 0.5588 1.2446 0 1.778-1.1176h5.3086q-0.3302 1.4732-1.2954 2.6416-0.9398 1.143-2.3876 1.8034t-3.2004 0.6604q-2.1082 0-3.7592-0.889-1.6256-0.889-2.5654-2.54-0.9144-1.651-0.9144-3.8862t0.9144-3.8608q0.9144-1.651 2.54-2.54 1.651-0.889 3.7846-0.889 2.1082 0 3.7338 0.8636t2.54 2.4892q0.9144 1.6002 0.9144 3.7846zm-5.08-1.2446q0-0.9144-0.6096-1.4224-0.6096-0.5334-1.524-0.5334t-1.4986 0.508q-0.5842 0.4826-0.762 1.4478z"/>
   <path d="m93.26 88.887q-1.9304 0-3.4544-0.635-1.4986-0.6604-2.3876-1.778-0.8636-1.143-0.9652-2.5654h4.826q0.1016 0.6858 0.635 1.0668t1.3208 0.381q0.6096 0 0.9652-0.254t0.3556-0.6604q0-0.5334-0.5842-0.7874t-1.9304-0.5588q-1.524-0.3048-2.54-0.6858t-1.778-1.2446q-0.7366-0.8636-0.7366-2.3368 0-1.27 0.6858-2.286 0.6858-1.0414 2.0066-1.651 1.3462-0.6096 3.2258-0.6096 2.794 0 4.3942 1.3716t1.8542 3.6068h-4.4958q-0.127-0.6858-0.6096-1.0414-0.4572-0.381-1.2446-0.381-0.6096 0-0.9398 0.2286-0.3048 0.2286-0.3048 0.635 0 0.508 0.5842 0.7874 0.5842 0.254 1.8796 0.5334 1.5494 0.3302 2.5654 0.7366 1.0414 0.4064 1.8034 1.3208 0.7874 0.889 0.7874 2.4384 0 1.2446-0.7366 2.2352-0.7112 0.9906-2.0574 1.5748-1.3208 0.5588-3.1242 0.5588z"/>
   <path d="m104.13 73.139q-1.3208 0-2.1336-0.7112-0.7874-0.7366-0.7874-1.8288 0-1.1176 0.7874-1.8542 0.8128-0.7366 2.1336-0.7366 1.2954 0 2.0828 0.7366 0.8128 0.7366 0.8128 1.8542 0 1.0922-0.8128 1.8288-0.7874 0.7112-2.0828 0.7112zm2.4638 1.3208v14.249h-4.9784v-14.249z"/>
   <path d="m114.7 74.282q1.4478 0 2.5146 0.5842 1.0922 0.5842 1.6764 1.5748v-1.9812h4.9784v14.097q0 2.0066-0.762 3.6068-0.762 1.6256-2.3876 2.5908-1.6002 0.9652-4.064 0.9652-3.302 0-5.2832-1.5494t-2.2606-4.2164h4.9022q0.1524 0.6858 0.762 1.0668t1.5748 0.381q2.54 0 2.54-2.8448v-1.8288q-0.5842 0.9906-1.6764 1.5748-1.0668 0.5842-2.5146 0.5842-1.7018 0-3.0988-0.889-1.3716-0.889-2.1844-2.54-0.7874-1.6764-0.7874-3.8862t0.7874-3.8608q0.8128-1.651 2.1844-2.54 1.397-0.889 3.0988-0.889zm4.191 7.2898q0-1.3716-0.762-2.159-0.7366-0.7874-1.8288-0.7874-1.1176 0-1.8542 0.7874-0.7366 0.762-0.7366 2.159 0 1.3716 0.7366 2.1844 0.7366 0.7874 1.8542 0.7874 1.0922 0 1.8288-0.7874 0.762-0.7874 0.762-2.1844z"/>
   <path d="m136.03 74.333q2.4638 0 3.9116 1.651 1.4478 1.6256 1.4478 4.4196v8.3058h-4.9784v-7.6454q0-1.2192-0.635-1.905-0.635-0.7112-1.7018-0.7112-1.1176 0-1.7526 0.7112-0.635 0.6858-0.635 1.905v7.6454h-4.9784v-14.249h4.9784v2.032q0.6604-0.9652 1.778-1.5494 1.1176-0.6096 2.5654-0.6096z"/>
  </g>
 </g>
</svg>
